<svg width="48" height="48" viewBox="0 0 48 48" fill="none" xmlns="http://www.w3.org/2000/svg">
  <rect width="48" height="48" fill="#27272A"/>
  <mask id="mask0_146_141" style="mask-type:alpha" maskUnits="userSpaceOnUse" x="9" y="9" width="30" height="30">
  <rect x="9" y="9" width="30" height="30" fill="#D9D9D9"/>
  </mask>
  <g mask="url(#mask0_146_141)">
  <path d="M24 29.625C25.5625 29.625 26.8906 29.0781 27.9844 27.9844C29.0781 26.8906 29.625 25.5625 29.625 24C29.625 22.4375 29.0781 21.1094 27.9844 20.0156C26.8906 18.9219 25.5625 18.375 24 18.375C22.4375 18.375 21.1094 18.9219 20.0156 20.0156C18.9219 21.1094 18.375 22.4375 18.375 24C18.375 25.5625 18.9219 26.8906 20.0156 27.9844C21.1094 29.0781 22.4375 29.625 24 29.625ZM24 25.25C23.6458 25.25 23.349 25.1302 23.1094 24.8906C22.8698 24.651 22.75 24.3542 22.75 24C22.75 23.6458 22.8698 23.349 23.1094 23.1094C23.349 22.8698 23.6458 22.75 24 22.75C24.3542 22.75 24.651 22.8698 24.8906 23.1094C25.1302 23.349 25.25 23.6458 25.25 24C25.25 24.3542 25.1302 24.651 24.8906 24.8906C24.651 25.1302 24.3542 25.25 24 25.25ZM24 36.5C22.2708 36.5 20.6458 36.1719 19.125 35.5156C17.6042 34.8594 16.2812 33.9688 15.1562 32.8438C14.0312 31.7188 13.1406 30.3958 12.4844 28.875C11.8281 27.3542 11.5 25.7292 11.5 24C11.5 22.2708 11.8281 20.6458 12.4844 19.125C13.1406 17.6042 14.0312 16.2812 15.1562 15.1562C16.2812 14.0312 17.6042 13.1406 19.125 12.4844C20.6458 11.8281 22.2708 11.5 24 11.5C25.7292 11.5 27.3542 11.8281 28.875 12.4844C30.3958 13.1406 31.7188 14.0312 32.8438 15.1562C33.9688 16.2812 34.8594 17.6042 35.5156 19.125C36.1719 20.6458 36.5 22.2708 36.5 24C36.5 25.7292 36.1719 27.3542 35.5156 28.875C34.8594 30.3958 33.9688 31.7188 32.8438 32.8438C31.7188 33.9688 30.3958 34.8594 28.875 35.5156C27.3542 36.1719 25.7292 36.5 24 36.5ZM24 34C26.7917 34 29.1563 33.0313 31.0938 31.0938C33.0313 29.1563 34 26.7917 34 24C34 21.2083 33.0313 18.8438 31.0938 16.9063C29.1563 14.9688 26.7917 14 24 14C21.2083 14 18.8438 14.9688 16.9063 16.9063C14.9688 18.8438 14 21.2083 14 24C14 26.7917 14.9688 29.1563 16.9063 31.0938C18.8438 33.0313 21.2083 34 24 34Z" fill="#A1A1AA"/>
  </g>
</svg>
  