<svg width="40" height="40" viewBox="0 0 40 40" fill="none" xmlns="http://www.w3.org/2000/svg">
<path d="M29.5831 17.8317C29.5798 17.8447 29.5733 17.861 29.5733 17.874C29.5701 17.9977 29.531 18.1149 29.4822 18.2256C29.2087 18.8213 28.9353 19.4202 28.6619 20.0159C28.4242 20.5335 28.1834 21.0544 27.9457 21.5752C27.8351 21.8193 27.6625 22.0016 27.4249 22.1123C27.4151 22.1156 27.4086 22.1221 27.3989 22.1253C27.4054 22.1774 27.4151 22.2262 27.4184 22.2783C27.4444 22.4834 27.4086 22.6787 27.3207 22.861C27.1482 23.2126 26.9789 23.5641 26.8064 23.9157C26.6209 24.2933 26.4386 24.6709 26.2563 25.0452C26.0707 25.4196 25.7843 25.6572 25.3936 25.7549C25.3025 25.7777 25.2114 25.7842 25.1202 25.7842C23.2354 25.7842 21.3539 25.7842 19.4724 25.7842C19.4268 25.7842 19.3845 25.7939 19.3455 25.8167C18.3917 26.3083 17.4119 26.7249 16.3897 27.0342C15.934 27.1741 15.4685 27.2881 14.9998 27.3695C14.5701 27.4443 14.1371 27.4932 13.7009 27.4997C13.2778 27.5062 12.8611 27.4736 12.4477 27.3727C12.0798 27.2848 11.7315 27.1448 11.4158 26.9235C10.8852 26.5459 10.5662 26.0251 10.4587 25.3642C10.4262 25.1592 10.4099 24.9541 10.4197 24.749C10.449 24.085 10.628 23.46 10.8819 22.8545C11.1423 22.2262 11.4776 21.6403 11.852 21.0804C12.3337 20.3577 12.8806 19.6839 13.4666 19.0491C14.2413 18.2126 15.0746 17.4476 15.96 16.7412C15.9861 16.7184 16.0121 16.7119 16.0479 16.7184C16.2302 16.751 16.4158 16.79 16.5981 16.8486C16.6111 16.8519 16.6274 16.8584 16.6502 16.8649C16.6274 16.8844 16.6111 16.8975 16.5948 16.9105C15.9861 17.3825 15.4067 17.8903 14.863 18.4404C14.2576 19.0524 13.7074 19.7132 13.2387 20.4456C12.9197 20.9502 12.6462 21.4775 12.4509 22.0439C12.337 22.3695 12.2524 22.7015 12.2035 23.0433C12.1352 23.5348 12.1417 24.0231 12.2784 24.5016C12.5258 25.3382 13.0466 25.9079 13.8246 26.2269C14.0818 26.3343 14.352 26.3961 14.6254 26.432C14.9509 26.4743 15.2797 26.4743 15.6052 26.4482C16.0968 26.4059 16.5753 26.305 17.0505 26.1683C17.3923 26.0674 17.7309 25.9502 18.0629 25.8167C18.0792 25.8102 18.0922 25.8037 18.1052 25.7842C18.0857 25.7842 18.0694 25.7842 18.0499 25.7842C17.158 25.7842 16.2693 25.7842 15.3774 25.7842C15.0877 25.7842 14.8435 25.68 14.6417 25.4684C14.4757 25.2959 14.3129 25.1266 14.1502 24.9573C13.9418 24.7392 13.8377 24.4756 13.8442 24.1696C13.8474 24.0166 13.8832 23.8734 13.9451 23.7366C14.1274 23.3558 14.3097 22.9782 14.4887 22.5973C15.1397 21.2334 15.7908 19.8662 16.4418 18.5023C16.6534 18.0563 16.8683 17.6103 17.0798 17.1644C17.0896 17.1448 17.0994 17.1286 17.1091 17.1058C17.1254 17.1221 17.1384 17.1318 17.1515 17.1448C17.2556 17.2392 17.3337 17.3564 17.3923 17.4866C17.4347 17.5876 17.464 17.6917 17.503 17.7926C17.516 17.8284 17.5128 17.861 17.4965 17.8935C17.3565 18.18 17.2198 18.4697 17.0831 18.7594C16.546 19.8825 16.0089 21.0088 15.4718 22.1318C15.1723 22.7633 14.8728 23.3916 14.5701 24.0231C14.5278 24.1142 14.5115 24.2086 14.544 24.3063C14.5864 24.4463 14.7068 24.5374 14.85 24.5407C14.8663 24.5407 14.8826 24.5407 14.9021 24.5407C18.1248 24.5407 21.3442 24.5407 24.5668 24.5407C24.8337 24.5407 25.0225 24.4202 25.143 24.1728C25.4913 23.4567 25.8396 22.7373 26.1912 22.0244C26.2888 21.8258 26.1944 21.6077 26.0252 21.5426C25.9828 21.5231 25.934 21.5166 25.8852 21.5166C25.2895 21.5133 24.6938 21.5133 24.0981 21.5133C23.5056 21.5133 22.9132 21.5133 22.3175 21.5166C22.0733 21.5166 21.8878 21.6305 21.7739 21.8584C21.6371 22.1318 21.5037 22.4085 21.367 22.6852C21.2953 22.8252 21.1912 22.9326 21.0479 22.9847C20.9893 23.0075 20.9308 23.0238 20.8722 23.0238C20.5922 23.027 20.3123 23.027 20.0323 23.027C19.8435 23.0238 19.7003 22.8512 19.7166 22.6559C19.7231 22.6136 19.7361 22.568 19.7524 22.529C19.9574 22.109 20.1593 21.6859 20.3709 21.2659C20.475 21.0576 20.6508 20.9502 20.8787 20.9469C21.1684 20.9437 21.4581 20.9469 21.7478 20.9502C21.9203 20.9502 22.0929 20.9534 22.2654 20.9534C23.6716 20.9534 25.0811 20.9534 26.4874 20.9567C26.5948 20.9567 26.686 20.9209 26.7576 20.8363C26.7804 20.8037 26.7999 20.7679 26.8194 20.7321C27.2426 19.8109 27.6658 18.8864 28.0857 17.9652C28.1768 17.7698 28.2647 17.5778 28.3526 17.3825C28.4177 17.2392 28.3917 17.0863 28.2843 16.9821C28.2224 16.9235 28.1541 16.8942 28.0727 16.8877C28.0499 16.8877 28.0304 16.8877 28.0076 16.8877C25.2374 16.8877 22.464 16.8877 19.6938 16.8877C19.671 16.8877 19.6482 16.8877 19.6254 16.8877C19.6254 16.8844 19.6254 16.8812 19.6254 16.8779C19.6482 16.8714 19.6677 16.8616 19.6905 16.8551C19.9151 16.7835 20.1462 16.7379 20.3774 16.6989C20.4783 16.6826 20.5792 16.6696 20.6801 16.6533C20.8852 16.6175 21.0447 16.445 21.0707 16.2236C21.0707 16.2106 21.0707 16.1976 21.074 16.178C21.2367 16.1748 21.3995 16.178 21.5623 16.178C21.7283 16.1748 21.8943 16.178 22.0571 16.178H26.992C26.9822 16.1032 26.9757 16.0348 26.9659 15.9665C26.9106 15.5693 26.7869 15.1982 26.5785 14.8597C26.2498 14.3258 25.7908 13.9678 25.2179 13.7627C24.9477 13.665 24.6742 13.6097 24.391 13.5804C24.0004 13.5413 23.613 13.5609 23.2257 13.6129C22.5909 13.7008 21.9757 13.8766 21.3767 14.1045C20.6573 14.3714 19.9737 14.7132 19.3031 15.0908C19.2543 15.1169 19.2055 15.1461 19.1599 15.1722C19.1567 15.1754 19.1502 15.1754 19.1436 15.1754C19.0199 15.055 18.9386 14.9053 18.8735 14.7425C18.8865 14.7327 18.8962 14.7262 18.906 14.7197C20.0974 14.0264 21.3377 13.4404 22.6462 13.0238C23.1606 12.861 23.6847 12.7243 24.2153 12.6299C24.697 12.5452 25.1821 12.4964 25.6703 12.4997C26.1261 12.5029 26.5785 12.555 27.018 12.695C27.3435 12.7959 27.6462 12.9456 27.9197 13.1605C28.3656 13.5185 28.6423 13.984 28.753 14.5602C28.8116 14.8662 28.8181 15.1754 28.7856 15.4879C28.7595 15.7711 28.7042 16.0478 28.6326 16.3213C28.6293 16.331 28.6261 16.3376 28.6228 16.3506C28.6358 16.3603 28.6456 16.3701 28.6554 16.3766C28.6977 16.4157 28.7433 16.4515 28.7823 16.4905C28.9483 16.6631 29.1143 16.8356 29.2804 17.0081C29.4301 17.1644 29.5278 17.3499 29.5668 17.568C29.5733 17.6071 29.5766 17.6461 29.5831 17.6885V17.8317Z" fill="#FAFAFA"/>
<path d="M18.1573 13.5283C18.2061 13.5283 18.2354 13.5609 18.2452 13.6162C18.255 13.6976 18.2647 13.779 18.2778 13.8571C18.3266 14.1826 18.3819 14.5049 18.4893 14.8141C18.5089 14.8662 18.5317 14.9215 18.5512 14.9736C18.7074 15.3447 18.9646 15.6051 19.3227 15.7646C19.544 15.8623 19.7751 15.9274 20.0095 15.973C20.2048 16.012 20.4001 16.0413 20.5955 16.0739C20.602 16.0771 20.6117 16.0771 20.6215 16.0771C20.6638 16.0902 20.6899 16.126 20.6866 16.1683C20.6866 16.2106 20.6606 16.2464 20.6182 16.2529C20.5499 16.2659 20.4783 16.2757 20.4067 16.2855C20.0909 16.3376 19.7784 16.3962 19.4757 16.5068C19.391 16.5394 19.3064 16.5784 19.225 16.6175C18.893 16.7868 18.6716 17.057 18.5317 17.4085C18.4438 17.6299 18.3852 17.8577 18.3429 18.0954C18.307 18.3005 18.2778 18.5055 18.2452 18.7139C18.2354 18.7822 18.1866 18.8213 18.1313 18.8018C18.0955 18.7887 18.0759 18.7627 18.0694 18.7269C18.0597 18.6585 18.0531 18.5934 18.0434 18.5283C17.9978 18.2158 17.9457 17.9066 17.8481 17.6071C17.8188 17.5062 17.7797 17.4053 17.7341 17.3076C17.5942 16.9886 17.3663 16.7542 17.0603 16.6012C16.8585 16.5036 16.6469 16.4385 16.4288 16.3864C16.2009 16.3343 15.9731 16.2952 15.7419 16.2627C15.7289 16.2594 15.7126 16.2594 15.6996 16.2562C15.6508 16.2432 15.6215 16.2106 15.6248 16.165C15.6248 16.1162 15.6541 16.0837 15.7061 16.0771C15.755 16.0674 15.8038 16.0609 15.8526 16.0544C16.1 16.0153 16.3442 15.973 16.585 15.9046C16.7153 15.8688 16.8422 15.8232 16.9692 15.7712C17.35 15.6149 17.6202 15.3317 17.7765 14.9346C17.8643 14.7132 17.9262 14.4854 17.9685 14.2542C18.0043 14.0492 18.0336 13.8408 18.0662 13.6357C18.0662 13.6195 18.0694 13.6064 18.0727 13.5902C18.0857 13.5511 18.1182 13.5283 18.1573 13.5283Z" fill="#FAFAFA"/>
<path d="M22.171 19.4691C22.018 19.4691 21.8682 19.4691 21.7185 19.4658C21.6046 19.4658 21.5167 19.4105 21.4548 19.3128C21.393 19.2119 21.3832 19.1045 21.4288 18.9938C21.4809 18.8799 21.5329 18.7627 21.5915 18.652C21.6892 18.4632 21.8487 18.3688 22.0505 18.359C22.1254 18.3558 22.197 18.3558 22.2719 18.3558C22.4802 18.3558 22.6885 18.3558 22.9001 18.3558C22.9424 18.3558 22.988 18.3623 23.0303 18.372C23.2159 18.4274 23.3168 18.639 23.2419 18.8245C23.1931 18.9417 23.1443 19.0589 23.0824 19.1696C22.9782 19.3584 22.8155 19.4593 22.6006 19.4658C22.4574 19.4691 22.3142 19.4691 22.171 19.4691Z" fill="#FAFAFA"/>
</svg>
