<svg width="25" height="24" viewBox="0 0 25 24" fill="none" xmlns="http://www.w3.org/2000/svg">
<path d="M11.8458 8.87002V17H20.6058C22.4558 16.87 23.2858 15.73 23.2858 14.33C23.2858 12.85 22.1658 11.66 20.6658 11.66C20.2858 11.66 19.9658 11.74 19.6358 11.88C19.3958 9.54002 17.4058 7.71002 14.9558 7.71002C13.7858 7.71002 12.6758 8.15002 11.8458 8.87002ZM10.9658 9.89002C10.6658 9.71002 10.3458 9.57002 9.99577 9.50002V17H11.3858V9.34002C11.2358 9.50002 11.0958 9.70002 10.9658 9.89002ZM8.61577 9.35002V17H9.53577V9.38002C9.34577 9.35002 9.15577 9.34002 8.95577 9.34002C8.83577 9.34002 8.72577 9.34002 8.61577 9.35002ZM6.78577 10V17H7.69577V9.54002C7.36577 9.65002 7.05577 9.81002 6.78577 10ZM5.11577 12.5C5.05577 12.5 4.99577 12.44 4.92577 12.41V17H5.84577V10.86C5.47577 11.34 5.22577 11.91 5.11577 12.5ZM3.07577 12.22V16.91C3.28577 16.97 3.52577 17 3.78577 17H4.00577V12.14C3.92577 12.13 3.84577 12.12 3.78577 12.12C3.52577 12.12 3.28577 12.16 3.07577 12.22ZM1.28577 14.56C1.28577 15.31 1.62577 15.97 2.15577 16.42V12.71C1.62577 13.15 1.28577 13.82 1.28577 14.56Z" fill="#FF8A00"/>
</svg>
