<svg width="24" height="24" viewBox="0 0 24 24" fill="none" xmlns="http://www.w3.org/2000/svg">
<path d="M17.9154 10.8652C14.6919 8.95091 9.37492 8.7749 6.29775 9.70883C5.80359 9.85881 5.28101 9.57974 5.13133 9.08573C4.98155 8.59124 5.26021 8.06905 5.75475 7.91882C9.28713 6.84661 15.1592 7.05368 18.8701 9.25649C19.3145 9.52039 19.4603 10.0944 19.1969 10.5381C18.9332 10.9826 18.3587 11.1291 17.9154 10.8652ZM17.8098 13.7006C17.5836 14.0675 17.1038 14.1826 16.7373 13.9573C14.05 12.3054 9.95211 11.8269 6.77274 12.7919C6.36045 12.9165 5.92496 12.6841 5.79972 12.2725C5.67549 11.8603 5.90807 11.4256 6.31963 11.3002C9.9516 10.1981 14.4667 10.7319 17.5533 12.6287C17.9198 12.8544 18.0351 13.3344 17.8098 13.7006ZM16.5862 16.4235C16.4065 16.7183 16.0228 16.8106 15.7291 16.6309C13.3809 15.1957 10.4251 14.8716 6.94426 15.6667C6.60882 15.7436 6.27452 15.5334 6.19802 15.198C6.12119 14.8627 6.33059 14.5283 6.66676 14.4518C10.476 13.581 13.7436 13.9558 16.3793 15.5664C16.6732 15.7459 16.7658 16.1298 16.5862 16.4235ZM12 2C6.47724 2 2 6.47715 2 11.9999C2 17.5232 6.47724 22 12 22C17.523 22 22 17.5232 22 11.9999C22 6.47715 17.523 2 12 2Z" fill="#1ED760"/>
</svg>
