<svg width="25" height="24" viewBox="0 0 25 24" fill="none" xmlns="http://www.w3.org/2000/svg">
<path d="M19.6996 18.1511C11.6016 22.0051 6.57588 18.7805 3.35876 16.822C3.15969 16.6986 2.82133 16.8509 3.1149 17.1881C4.18668 18.4877 7.69914 21.62 12.2839 21.62C16.8719 21.62 19.6013 19.1166 19.9427 18.6799C20.2818 18.2469 20.0423 18.008 19.6995 18.1511H19.6996ZM21.9739 16.8951C21.7565 16.6119 20.6516 16.5591 19.9562 16.6445C19.2598 16.7275 18.2145 17.1531 18.3054 17.4087C18.352 17.5044 18.4472 17.4614 18.9256 17.4184C19.4054 17.3706 20.7492 17.201 21.0293 17.567C21.3106 17.9356 20.6006 19.6915 20.471 19.9747C20.3457 20.2579 20.5188 20.3309 20.7542 20.1423C20.9862 19.9538 21.4064 19.4655 21.6884 18.7745C21.9684 18.0798 22.1392 17.1107 21.9739 16.8951Z" fill="#FF9900"/>
<path fill-rule="evenodd" clip-rule="evenodd" d="M14.2546 10.2871C14.2546 11.2983 14.2801 12.1416 13.769 13.0396C13.3565 13.7698 12.703 14.2189 11.9729 14.2189C10.9762 14.2189 10.3957 13.4595 10.3957 12.3388C10.3957 10.1264 12.378 9.72488 14.2546 9.72488V10.2871ZM16.8721 16.6137C16.7005 16.767 16.4522 16.778 16.2588 16.6758C15.3972 15.9603 15.2438 15.6281 14.7693 14.9454C13.3455 16.3984 12.3379 16.8328 10.4907 16.8328C8.30757 16.8328 6.60632 15.4856 6.60632 12.7878C6.60632 10.6814 7.74906 9.24662 9.37351 8.54575C10.7827 7.92505 12.7505 7.81555 14.2546 7.64402V7.30813C14.2546 6.69113 14.302 5.96101 13.9406 5.42805C13.6229 4.94979 13.0169 4.75264 12.4839 4.75264C11.4946 4.75264 10.6111 5.26006 10.3957 6.31145C10.3519 6.54515 10.1803 6.77516 9.94672 6.78609L7.42771 6.51599C7.21601 6.46843 6.98239 6.29691 7.04079 5.97194C7.62124 2.92004 10.3774 2 12.8453 2C14.1084 2 15.7585 2.33589 16.7552 3.2924C18.0183 4.47154 17.8978 6.04497 17.8978 7.75714V11.8021C17.8978 13.0178 18.4016 13.5508 18.8762 14.2079C19.0441 14.4416 19.0807 14.7227 18.8689 14.8979C18.3395 15.3396 17.3976 16.161 16.8793 16.6211L16.872 16.6137" fill="white"/>
<path d="M19.6996 18.1511C11.6016 22.0051 6.57588 18.7805 3.35876 16.822C3.15969 16.6986 2.82133 16.8509 3.1149 17.1881C4.18668 18.4877 7.69914 21.62 12.2839 21.62C16.8719 21.62 19.6013 19.1166 19.9427 18.6799C20.2818 18.2469 20.0423 18.008 19.6995 18.1511H19.6996ZM21.9739 16.8951C21.7565 16.6119 20.6516 16.5591 19.9562 16.6445C19.2598 16.7275 18.2145 17.1531 18.3054 17.4087C18.352 17.5044 18.4472 17.4614 18.9256 17.4184C19.4054 17.3706 20.7492 17.201 21.0293 17.567C21.3106 17.9356 20.6006 19.6915 20.471 19.9747C20.3457 20.2579 20.5188 20.3309 20.7542 20.1423C20.9862 19.9538 21.4064 19.4655 21.6884 18.7745C21.9684 18.0798 22.1392 17.1107 21.9739 16.8951Z" fill="#FF9900"/>
<path fill-rule="evenodd" clip-rule="evenodd" d="M14.2546 10.2871C14.2546 11.2983 14.2801 12.1416 13.769 13.0396C13.3565 13.7698 12.703 14.2189 11.9729 14.2189C10.9762 14.2189 10.3957 13.4595 10.3957 12.3388C10.3957 10.1264 12.378 9.72488 14.2546 9.72488V10.2871ZM16.8721 16.6137C16.7005 16.767 16.4522 16.778 16.2588 16.6758C15.3972 15.9603 15.2438 15.6281 14.7693 14.9454C13.3455 16.3984 12.3379 16.8328 10.4907 16.8328C8.30757 16.8328 6.60632 15.4856 6.60632 12.7878C6.60632 10.6814 7.74906 9.24662 9.37351 8.54575C10.7827 7.92505 12.7505 7.81555 14.2546 7.64402V7.30813C14.2546 6.69113 14.302 5.96101 13.9406 5.42805C13.6229 4.94979 13.0169 4.75264 12.4839 4.75264C11.4946 4.75264 10.6111 5.26006 10.3957 6.31145C10.3519 6.54515 10.1803 6.77516 9.94672 6.78609L7.42771 6.51599C7.21601 6.46843 6.98239 6.29691 7.04079 5.97194C7.62124 2.92004 10.3774 2 12.8453 2C14.1084 2 15.7585 2.33589 16.7552 3.2924C18.0183 4.47154 17.8978 6.04497 17.8978 7.75714V11.8021C17.8978 13.0178 18.4016 13.5508 18.8762 14.2079C19.0441 14.4416 19.0807 14.7227 18.8689 14.8979C18.3395 15.3396 17.3976 16.161 16.8793 16.6211L16.872 16.6137" fill="white"/>
</svg>
