<svg width="25" height="24" viewBox="0 0 25 24" fill="none" xmlns="http://www.w3.org/2000/svg">
<path d="M19.4988 8.82353C18.188 9.64706 17.3783 11.0588 17.3783 12.6275C17.3783 14.3922 18.4193 16 20 16.6667C19.6916 17.6863 19.2289 18.6275 18.6506 19.4902C17.8024 20.7059 16.9157 21.9608 15.6048 21.9608C14.294 21.9608 13.9084 21.1765 12.3663 21.1765C10.8627 21.1765 10.3229 22 9.08916 22C7.85542 22 7.00723 20.8627 6.04337 19.451C4.77108 17.4902 4.03855 15.2157 4 12.8235C4 8.94118 6.46747 6.86275 8.93494 6.86275C10.2458 6.86275 11.3253 7.72549 12.1349 7.72549C12.906 7.72549 14.1398 6.82353 15.6048 6.82353C17.147 6.78431 18.612 7.52941 19.4988 8.82353ZM14.9108 5.17647C15.5663 4.39216 15.9133 3.41176 15.9518 2.39216C15.9518 2.27451 15.9518 2.11765 15.9133 2C14.7952 2.11765 13.7542 2.66667 13.0217 3.52941C12.3663 4.27451 11.9807 5.21569 11.9422 6.23529C11.9422 6.35294 11.9422 6.47059 11.9807 6.58824C12.0578 6.58824 12.1735 6.62745 12.2506 6.62745C13.2916 6.54902 14.2554 6 14.9108 5.17647Z" fill="white"/>
</svg>
