<svg width="25" height="24" viewBox="0 0 25 24" fill="none" xmlns="http://www.w3.org/2000/svg">
<path fill-rule="evenodd" clip-rule="evenodd" d="M19.6312 5.05131C19.8162 3.97881 20.0878 3.30439 20.3885 3.30311H20.3891C20.95 3.30504 21.4046 5.64392 21.4046 8.53162C21.4046 11.4193 20.9494 13.7601 20.3879 13.7601C20.1577 13.7601 19.9453 13.3627 19.7743 12.6966C19.504 15.1348 18.9432 16.8108 18.294 16.8108C17.7916 16.8108 17.3408 15.804 17.0382 14.2162C16.8315 17.2359 16.3114 19.3784 15.7035 19.3784C15.3219 19.3784 14.9741 18.5294 14.7166 17.147C14.407 20.0006 13.6916 22 12.8573 22C12.0231 22 11.3064 20.0012 10.9981 17.147C10.7425 18.5294 10.3946 19.3784 10.0112 19.3784C9.40332 19.3784 8.88446 17.2359 8.67653 14.2162C8.37386 15.804 7.9243 16.8108 7.4207 16.8108C6.77212 16.8108 6.21065 15.1354 5.94041 12.6966C5.77063 13.3646 5.55698 13.7601 5.3268 13.7601C4.76533 13.7601 4.31005 11.4193 4.31005 8.53162C4.31005 5.64392 4.76533 3.30311 5.3268 3.30311C5.6282 3.30311 5.8978 3.97945 6.08475 5.05131C6.38424 3.20197 6.87067 2 7.4207 2C8.07373 2 8.63965 3.6999 8.90735 6.16826C9.16933 4.37174 9.56674 3.22645 10.0118 3.22645C10.6356 3.22645 11.1659 5.47902 11.3624 8.62116C11.7318 7.01015 12.2666 5.99949 12.8586 5.99949C13.4506 5.99949 13.9854 7.01079 14.3542 8.62116C14.5513 5.47902 15.0809 3.22645 15.7048 3.22645C16.1492 3.22645 16.546 4.37174 16.8092 6.16826C17.0763 3.6999 17.6423 2 18.2953 2C18.8434 2 19.3317 3.20262 19.6312 5.05131ZM2.85718 8.01737C2.85718 6.7265 3.11534 5.67977 3.43391 5.67977C3.75247 5.67977 4.01064 6.7265 4.01064 8.01737C4.01064 9.3082 3.75247 10.355 3.43391 10.355C3.11534 10.355 2.85718 9.3082 2.85718 8.01737ZM21.7036 8.01737C21.7036 6.7265 21.9618 5.67977 22.2804 5.67977C22.5989 5.67977 22.8571 6.7265 22.8571 8.01737C22.8571 9.3082 22.5989 10.355 22.2804 10.355C21.9618 10.355 21.7036 9.3082 21.7036 8.01737Z" fill="#A238FF"/>
</svg>
