<svg width="24" height="24" viewBox="0 0 24 24" fill="none" xmlns="http://www.w3.org/2000/svg">
<path fill-rule="evenodd" clip-rule="evenodd" d="M16.7601 19.3838C16.7601 19.3838 16.7217 19.3377 16.6559 19.2585C16.4749 19.0408 16.0874 18.572 15.7274 18.1195C15.6949 18.0786 15.6624 18.0377 15.63 17.9967C17.8733 17.3631 18.7293 15.959 18.7293 15.959C18.115 16.3636 17.527 16.6633 16.988 16.8809C16.9125 16.9114 16.8365 16.9408 16.7601 16.9692C15.9041 17.3289 15.0821 17.5685 14.2774 17.7056C12.6335 18.0138 11.1266 17.9282 9.84245 17.6885C8.86634 17.5 8.0273 17.2261 7.32533 16.9522C6.93146 16.798 6.50339 16.6097 6.0752 16.37C6.05114 16.3539 6.02703 16.3416 6.00292 16.3295L5.99815 16.3271L5.99808 16.3271L5.99802 16.327C5.97242 16.3142 5.94679 16.3014 5.92116 16.2843C5.88698 16.2672 5.86978 16.2501 5.8527 16.233C5.62153 16.1046 5.46742 16.0051 5.40482 15.9633C5.38395 15.9494 5.37325 15.9419 5.37325 15.9419C5.37325 15.9419 5.42462 16.0275 5.53564 16.1661C5.86875 16.5819 6.73884 17.4744 8.36981 17.9624C7.85617 18.6132 7.22257 19.3836 7.22257 19.3836C3.43823 19.2637 2 16.781 2 16.781C2 11.2673 4.46573 6.79807 4.46573 6.79807C6.31502 5.41107 8.09689 5.09324 8.87225 5.021C9.13069 4.99692 9.27731 5.00014 9.27731 5.00014L9.44857 5.20568C6.36643 6.09587 4.94518 7.44876 4.94518 7.44876C4.94518 7.44876 5.27624 7.26822 5.83961 7.00578C5.87716 6.98829 5.91576 6.97043 5.95534 6.95223C7.32952 6.34858 8.49181 6.07251 9.23991 5.95052C9.48928 5.90986 9.69262 5.88631 9.84245 5.87347C9.85473 5.87141 9.86675 5.86935 9.8786 5.86732L9.87937 5.8672H9.87941C9.96632 5.85234 10.0434 5.83917 10.1336 5.83917C11.281 5.68969 12.4423 5.67821 13.5925 5.80499C15.2191 5.99333 16.9657 6.47278 18.7465 7.44876C18.7465 7.44876 17.5576 6.32009 15.0104 5.44532C14.8355 5.38528 14.6596 5.32822 14.4828 5.27416L14.7225 5.00027C14.7225 5.00027 14.7317 5.00006 14.7495 5.00013C14.9984 5.00117 16.937 5.05622 19.0737 6.47323C19.2303 6.57706 19.3839 6.68543 19.5341 6.79821C19.5341 6.79821 21.7013 10.7261 21.9723 15.7602C21.9903 16.0958 22 16.4364 22 16.781C22 16.781 20.5444 19.2637 16.7601 19.3836V19.3838ZM8.79786 11.3871C7.88288 11.3871 7.14855 12.1396 7.06032 13.0943C7.05439 13.1586 7.05142 13.2231 7.05143 13.2877C7.05143 14.3323 7.83896 15.1884 8.79786 15.1884C9.77397 15.1884 10.5444 14.3323 10.5444 13.2877C10.5616 12.2433 9.77397 11.3871 8.79799 11.3871H8.79786ZM15.0479 11.3871C14.1328 11.3871 13.3984 12.1396 13.3101 13.0943C13.3042 13.1586 13.3012 13.2231 13.3013 13.2877C13.3013 14.3323 14.089 15.1884 15.0479 15.1884C16.0239 15.1884 16.7943 14.3323 16.7943 13.2877C16.7943 12.2433 16.0239 11.3871 15.0479 11.3871Z" fill="#7289DA"/>
</svg>
