<svg width="25" height="24" viewBox="0 0 25 24" fill="none" xmlns="http://www.w3.org/2000/svg">
<path d="M10.4286 15L15.6186 12L10.4286 9V15ZM21.9886 7.17C22.1186 7.64 22.2086 8.27 22.2686 9.07C22.3386 9.87 22.3686 10.56 22.3686 11.16L22.4286 12C22.4286 14.19 22.2686 15.8 21.9886 16.83C21.7386 17.73 21.1586 18.31 20.2586 18.56C19.7886 18.69 18.9286 18.78 17.6086 18.84C16.3086 18.91 15.1186 18.94 14.0186 18.94L12.4286 19C8.23859 19 5.62859 18.84 4.59859 18.56C3.69859 18.31 3.11859 17.73 2.86859 16.83C2.73859 16.36 2.64859 15.73 2.58859 14.93C2.51859 14.13 2.48859 13.44 2.48859 12.84L2.42859 12C2.42859 9.81 2.58859 8.2 2.86859 7.17C3.11859 6.27 3.69859 5.69 4.59859 5.44C5.06859 5.31 5.92859 5.22 7.24859 5.16C8.54859 5.09 9.73859 5.06 10.8386 5.06L12.4286 5C16.6186 5 19.2286 5.16 20.2586 5.44C21.1586 5.69 21.7386 6.27 21.9886 7.17Z" fill="#FF0000"/>
</svg>
